<?xml version="1.0" standalone="no"?>
<!DOCTYPE svg PUBLIC "-//W3C//DTD SVG 20010904//EN"
 "http://www.w3.org/TR/2001/REC-SVG-20010904/DTD/svg10.dtd">
<svg version="1.0" xmlns="http://www.w3.org/2000/svg"
 width="512.000000pt" height="512.000000pt" viewBox="0 0 512.000000 512.000000"
 preserveAspectRatio="xMidYMid meet">
<metadata>
Created by potrace 1.14, written by Peter Selinger 2001-2017
</metadata>
<g transform="translate(0.000000,512.000000) scale(0.100000,-0.100000)"
fill="#000000" stroke="none">
<path d="M2487 4694 c-1 -1 -40 -4 -87 -8 -435 -30 -880 -212 -1218 -500 -406
-344 -666 -820 -736 -1346 -14 -104 -17 -163 -17 -291 0 -77 3 -162 6 -187 4
-26 8 -62 11 -79 62 -465 272 -894 598 -1219 61 -61 133 -128 160 -150 27 -21
54 -44 60 -49 6 -6 56 -41 111 -77 205 -136 422 -232 655 -292 122 -31 187
-43 345 -61 98 -12 364 -6 455 10 14 2 45 7 70 10 37 5 152 29 232 49 62 16
247 85 325 121 360 168 681 448 896 780 161 250 279 565 322 865 11 75 15 471
5 530 -5 30 -11 71 -13 90 -12 88 -51 245 -88 355 -184 541 -583 989 -1103
1240 -103 50 -314 127 -376 138 -14 3 -43 10 -65 15 -22 6 -56 14 -75 17 -19
3 -46 8 -60 10 -48 10 -96 15 -195 21 -113 6 -216 10 -218 8z m1049 -869 c210
-54 365 -220 402 -431 5 -27 8 -417 7 -865 -2 -696 -5 -821 -17 -859 -62 -183
-186 -310 -358 -365 l-75 -24 -931 0 -930 -1 -77 24 c-99 30 -154 64 -227 136
-62 61 -130 185 -146 265 -4 22 -9 308 -9 635 -2 652 -1 656 57 778 41 85 149
196 230 235 117 56 149 60 561 61 l378 1 90 120 c50 66 103 133 118 148 45 49
133 101 216 129 79 27 81 27 366 27 222 0 300 -3 345 -14z"/>
<path d="M2904 3615 c-80 -24 -130 -61 -194 -145 -19 -25 -38 -49 -43 -55 -4
-5 -36 -49 -71 -96 -35 -47 -75 -93 -89 -102 -22 -14 -75 -17 -454 -19 l-428
-3 -59 -30 c-72 -36 -128 -99 -157 -174 -21 -55 -22 -65 -22 -646 0 -581 1
-591 22 -647 38 -99 126 -173 236 -196 34 -7 341 -10 945 -9 l895 2 56 27
c104 48 170 136 186 248 4 30 8 400 7 821 l-1 766 -23 62 c-29 77 -90 143
-168 179 l-57 27 -271 1 c-180 0 -284 -3 -310 -11z m580 -124 c34 -32 42 -80
21 -124 -26 -55 -49 -60 -303 -61 -189 -1 -232 2 -262 15 -68 31 -78 124 -18
175 l31 25 253 -3 c251 -3 253 -3 278 -27z m-839 -405 c94 -9 162 -29 251 -74
372 -188 518 -651 321 -1015 -47 -87 -110 -165 -174 -217 -24 -19 -49 -40 -56
-45 -6 -6 -32 -22 -57 -36 -391 -222 -886 -51 -1059 366 -98 235 -61 531 91
729 130 169 341 285 538 295 30 1 57 4 58 6 2 2 9 2 15 0 7 -2 39 -6 72 -9z"/>
<path d="M2449 2869 c-184 -43 -335 -178 -393 -351 -22 -68 -26 -94 -27 -178
-1 -295 259 -540 558 -524 171 8 337 106 427 251 45 73 76 183 76 270 1 43 -1
87 -4 98 -3 11 -9 36 -14 55 -21 81 -87 191 -151 248 -100 90 -210 134 -341
137 -52 2 -111 -1 -131 -6z m257 -122 c120 -44 226 -155 259 -272 33 -119 25
-183 -28 -215 -40 -25 -73 -25 -114 0 -32 19 -53 66 -53 118 0 84 -112 182
-208 182 -59 0 -113 59 -108 118 3 35 43 81 78 90 38 9 115 0 174 -21z"/>
</g>
</svg>
